{
    "asset" : {
        "generator" : "Khronos glTF Blender I/O v1.2.75",
        "version" : "2.0"
    },
    "scene" : 0,
    "scenes" : [
        {
            "name" : "Scene",
            "nodes" : [
                0,
                1,
                3
            ]
        }
    ],
    "nodes" : [
        {
            "name" : "Light",
            "rotation" : [
                0.16907575726509094,
                0.7558803558349609,
                -0.27217137813568115,
                0.570947527885437
            ],
            "translation" : [
                4.076245307922363,
                5.903861999511719,
                -1.0054539442062378
            ]
        },
        {
            "name" : "Camera",
            "rotation" : [
                0.483536034822464,
                0.33687159419059753,
                -0.20870360732078552,
                0.7804827094078064
            ],
            "translation" : [
                7.358891487121582,
                4.958309173583984,
                6.925790786743164
            ]
        },
        {
            "mesh" : 0,
            "name" : "ArcadeMachineScreen_1_Cube_008",
            "translation" : [
                -41.18074417114258,
                -194.19674682617188,
                90.67987823486328
            ]
        },
        {
            "children" : [
                2
            ],
            "mesh" : 1,
            "name" : "ArcadeMachine_1_Cube_001",
            "rotation" : [
                0.7071068286895752,
                0,
                0,
                0.7071067094802856
            ],
            "scale" : [
                0.017909640446305275,
                0.017909640446305275,
                0.017909640446305275
            ],
            "translation" : [
                0,
                2.0031423568725586,
                0
            ]
        }
    ],
    "materials" : [
        {
            "doubleSided" : true,
            "name" : "Material",
            "pbrMetallicRoughness" : {}
        }
    ],
    "meshes" : [
        {
            "name" : "Mesh.001",
            "primitives" : [
                {
                    "attributes" : {
                        "POSITION" : 0,
                        "NORMAL" : 1,
                        "TEXCOORD_0" : 2
                    },
                    "indices" : 3
                }
            ]
        },
        {
            "name" : "Mesh",
            "primitives" : [
                {
                    "attributes" : {
                        "POSITION" : 4,
                        "NORMAL" : 5,
                        "TEXCOORD_0" : 6,
                        "COLOR_0" : 7
                    },
                    "indices" : 8,
                    "material" : 0
                }
            ]
        }
    ],
    "accessors" : [
        {
            "bufferView" : 0,
            "componentType" : 5126,
            "count" : 25,
            "max" : [
                67.72985076904297,
                216.76858520507812,
                -117.9208984375
            ],
            "min" : [
                15.39858341217041,
                208.90501403808594,
                -152.00384521484375
            ],
            "type" : "VEC3"
        },
        {
            "bufferView" : 1,
            "componentType" : 5126,
            "count" : 25,
            "type" : "VEC3"
        },
        {
            "bufferView" : 2,
            "componentType" : 5126,
            "count" : 25,
            "type" : "VEC2"
        },
        {
            "bufferView" : 3,
            "componentType" : 5123,
            "count" : 96,
            "type" : "SCALAR"
        },
        {
            "bufferView" : 4,
            "componentType" : 5126,
            "count" : 1449,
            "max" : [
                37.86383056640625,
                44.16801071166992,
                90.00178527832031
            ],
            "min" : [
                -37.86383056640625,
                -44.16801071166992,
                -90.00178527832031
            ],
            "type" : "VEC3"
        },
        {
            "bufferView" : 5,
            "componentType" : 5126,
            "count" : 1449,
            "type" : "VEC3"
        },
        {
            "bufferView" : 6,
            "componentType" : 5126,
            "count" : 1449,
            "type" : "VEC2"
        },
        {
            "bufferView" : 7,
            "componentType" : 5126,
            "count" : 1449,
            "type" : "VEC4"
        },
        {
            "bufferView" : 8,
            "componentType" : 5123,
            "count" : 4548,
            "type" : "SCALAR"
        }
    ],
    "bufferViews" : [
        {
            "buffer" : 0,
            "byteLength" : 300,
            "byteOffset" : 0
        },
        {
            "buffer" : 0,
            "byteLength" : 300,
            "byteOffset" : 300
        },
        {
            "buffer" : 0,
            "byteLength" : 200,
            "byteOffset" : 600
        },
        {
            "buffer" : 0,
            "byteLength" : 192,
            "byteOffset" : 800
        },
        {
            "buffer" : 0,
            "byteLength" : 17388,
            "byteOffset" : 992
        },
        {
            "buffer" : 0,
            "byteLength" : 17388,
            "byteOffset" : 18380
        },
        {
            "buffer" : 0,
            "byteLength" : 11592,
            "byteOffset" : 35768
        },
        {
            "buffer" : 0,
            "byteLength" : 23184,
            "byteOffset" : 47360
        },
        {
            "buffer" : 0,
            "byteLength" : 9096,
            "byteOffset" : 70544
        }
    ],
    "buffers" : [
        {
            "byteLength" : 79640,
            "uri" : "data:application/octet-stream;base64,"
        }
    ]
}
