{
    "asset" : {
        "generator" : "Khronos glTF Blender I/O v1.2.75",
        "version" : "2.0"
    },
    "scene" : 0,
    "scenes" : [
        {
            "name" : "Scene",
            "nodes" : [
                0,
                1,
                2,
                3,
                4,
                5,
                6,
                7
            ]
        }
    ],
    "nodes" : [
        {
            "name" : "Light",
            "rotation" : [
                0.16907575726509094,
                0.7558803558349609,
                -0.27217137813568115,
                0.570947527885437
            ],
            "translation" : [
                4.076245307922363,
                5.903861999511719,
                -1.0054539442062378
            ]
        },
        {
            "name" : "Camera",
            "rotation" : [
                0.483536034822464,
                0.33687159419059753,
                -0.20870360732078552,
                0.7804827094078064
            ],
            "translation" : [
                7.358891487121582,
                4.958309173583984,
                6.925790786743164
            ]
        },
        {
            "mesh" : 0,
            "name" : "Frame",
            "rotation" : [
                0.7071068286895752,
                0,
                0,
                0.7071067094802856
            ],
            "scale" : [
                0.009999999776482582,
                0.009999999776482582,
                0.009999999776482582
            ],
            "translation" : [
                0.03688694164156914,
                -0.0028071303386241198,
                -0.03518290817737579
            ]
        },
        {
            "mesh" : 1,
            "name" : "Light_3",
            "rotation" : [
                0.7071068286895752,
                0,
                0,
                0.7071067094802856
            ],
            "scale" : [
                0.009999999776482582,
                0.009999999776482582,
                0.009999999776482582
            ],
            "translation" : [
                0,
                0.3237726390361786,
                0
            ]
        },
        {
            "mesh" : 2,
            "name" : "Light_2",
            "rotation" : [
                0.7071068286895752,
                0,
                0,
                0.7071067094802856
            ],
            "scale" : [
                0.009999999776482582,
                0.009999999776482582,
                0.009999999776482582
            ],
            "translation" : [
                0,
                0.39690226316452026,
                0
            ]
        },
        {
            "mesh" : 3,
            "name" : "Light_1",
            "rotation" : [
                0.7071068286895752,
                0,
                0,
                0.7071067094802856
            ],
            "scale" : [
                0.009999999776482582,
                0.009999999776482582,
                0.009999999776482582
            ],
            "translation" : [
                0,
                -0.40559157729148865,
                0
            ]
        },
        {
            "mesh" : 4,
            "name" : "Light.001",
            "rotation" : [
                0.7071068286895752,
                0,
                0,
                0.7071067094802856
            ],
            "scale" : [
                0.009999999776482582,
                0.009999999776482582,
                0.009999999776482582
            ],
            "translation" : [
                0,
                -0.332461953163147,
                0
            ]
        },
        {
            "mesh" : 5,
            "name" : "Text",
            "rotation" : [
                0.7071068286895752,
                0,
                0,
                0.7071067094802856
            ],
            "scale" : [
                0.009999999776482582,
                0.009999999776482582,
                0.009999999776482582
            ]
        }
    ],
    "meshes" : [
        {
            "name" : "Mesh",
            "primitives" : [
                {
                    "attributes" : {
                        "POSITION" : 0,
                        "NORMAL" : 1,
                        "TEXCOORD_0" : 2
                    },
                    "indices" : 3
                }
            ]
        },
        {
            "name" : "Mesh.001",
            "primitives" : [
                {
                    "attributes" : {
                        "POSITION" : 4,
                        "NORMAL" : 5,
                        "TEXCOORD_0" : 6
                    },
                    "indices" : 7
                }
            ]
        },
        {
            "name" : "Mesh.002",
            "primitives" : [
                {
                    "attributes" : {
                        "POSITION" : 8,
                        "NORMAL" : 9,
                        "TEXCOORD_0" : 10
                    },
                    "indices" : 7
                }
            ]
        },
        {
            "name" : "Mesh.003",
            "primitives" : [
                {
                    "attributes" : {
                        "POSITION" : 11,
                        "NORMAL" : 12,
                        "TEXCOORD_0" : 13
                    },
                    "indices" : 7
                }
            ]
        },
        {
            "name" : "Mesh.004",
            "primitives" : [
                {
                    "attributes" : {
                        "POSITION" : 14,
                        "NORMAL" : 15,
                        "TEXCOORD_0" : 16
                    },
                    "indices" : 7
                }
            ]
        },
        {
            "name" : "Mesh.005",
            "primitives" : [
                {
                    "attributes" : {
                        "POSITION" : 17,
                        "NORMAL" : 18,
                        "TEXCOORD_0" : 19
                    },
                    "indices" : 20
                }
            ]
        }
    ],
    "accessors" : [
        {
            "bufferView" : 0,
            "componentType" : 5126,
            "count" : 192,
            "max" : [
                109.77434539794922,
                0.9999403953552246,
                41.39460754394531
            ],
            "min" : [
                -109.44635009765625,
                -0.9999403953552246,
                -41.39460754394531
            ],
            "type" : "VEC3"
        },
        {
            "bufferView" : 1,
            "componentType" : 5126,
            "count" : 192,
            "type" : "VEC3"
        },
        {
            "bufferView" : 2,
            "componentType" : 5126,
            "count" : 192,
            "type" : "VEC2"
        },
        {
            "bufferView" : 3,
            "componentType" : 5123,
            "count" : 288,
            "type" : "SCALAR"
        },
        {
            "bufferView" : 4,
            "componentType" : 5126,
            "count" : 44,
            "max" : [
                125.78364562988281,
                1.240913987159729,
                1.3047741651535034
            ],
            "min" : [
                -125.78364562988281,
                -1.240913987159729,
                -1.3047741651535034
            ],
            "type" : "VEC3"
        },
        {
            "bufferView" : 5,
            "componentType" : 5126,
            "count" : 44,
            "type" : "VEC3"
        },
        {
            "bufferView" : 6,
            "componentType" : 5126,
            "count" : 44,
            "type" : "VEC2"
        },
        {
            "bufferView" : 7,
            "componentType" : 5123,
            "count" : 120,
            "type" : "SCALAR"
        },
        {
            "bufferView" : 8,
            "componentType" : 5126,
            "count" : 44,
            "max" : [
                125.78364562988281,
                1.240913987159729,
                1.3047741651535034
            ],
            "min" : [
                -125.78364562988281,
                -1.240913987159729,
                -1.3047741651535034
            ],
            "type" : "VEC3"
        },
        {
            "bufferView" : 9,
            "componentType" : 5126,
            "count" : 44,
            "type" : "VEC3"
        },
        {
            "bufferView" : 10,
            "componentType" : 5126,
            "count" : 44,
            "type" : "VEC2"
        },
        {
            "bufferView" : 11,
            "componentType" : 5126,
            "count" : 44,
            "max" : [
                125.78364562988281,
                1.240913987159729,
                1.3047741651535034
            ],
            "min" : [
                -125.78364562988281,
                -1.240913987159729,
                -1.3047741651535034
            ],
            "type" : "VEC3"
        },
        {
            "bufferView" : 12,
            "componentType" : 5126,
            "count" : 44,
            "type" : "VEC3"
        },
        {
            "bufferView" : 13,
            "componentType" : 5126,
            "count" : 44,
            "type" : "VEC2"
        },
        {
            "bufferView" : 14,
            "componentType" : 5126,
            "count" : 44,
            "max" : [
                125.78364562988281,
                1.240913987159729,
                1.3047741651535034
            ],
            "min" : [
                -125.78364562988281,
                -1.240913987159729,
                -1.3047741651535034
            ],
            "type" : "VEC3"
        },
        {
            "bufferView" : 15,
            "componentType" : 5126,
            "count" : 44,
            "type" : "VEC3"
        },
        {
            "bufferView" : 16,
            "componentType" : 5126,
            "count" : 44,
            "type" : "VEC2"
        },
        {
            "bufferView" : 17,
            "componentType" : 5126,
            "count" : 3606,
            "max" : [
                123.05323791503906,
                2.408201217651367,
                25.13582992553711
            ],
            "min" : [
                -123.05323791503906,
                -2.408201217651367,
                -25.13582992553711
            ],
            "type" : "VEC3"
        },
        {
            "bufferView" : 18,
            "componentType" : 5126,
            "count" : 3606,
            "type" : "VEC3"
        },
        {
            "bufferView" : 19,
            "componentType" : 5126,
            "count" : 3606,
            "type" : "VEC2"
        },
        {
            "bufferView" : 20,
            "componentType" : 5123,
            "count" : 9876,
            "type" : "SCALAR"
        }
    ],
    "bufferViews" : [
        {
            "buffer" : 0,
            "byteLength" : 2304,
            "byteOffset" : 0
        },
        {
            "buffer" : 0,
            "byteLength" : 2304,
            "byteOffset" : 2304
        },
        {
            "buffer" : 0,
            "byteLength" : 1536,
            "byteOffset" : 4608
        },
        {
            "buffer" : 0,
            "byteLength" : 576,
            "byteOffset" : 6144
        },
        {
            "buffer" : 0,
            "byteLength" : 528,
            "byteOffset" : 6720
        },
        {
            "buffer" : 0,
            "byteLength" : 528,
            "byteOffset" : 7248
        },
        {
            "buffer" : 0,
            "byteLength" : 352,
            "byteOffset" : 7776
        },
        {
            "buffer" : 0,
            "byteLength" : 240,
            "byteOffset" : 8128
        },
        {
            "buffer" : 0,
            "byteLength" : 528,
            "byteOffset" : 8368
        },
        {
            "buffer" : 0,
            "byteLength" : 528,
            "byteOffset" : 8896
        },
        {
            "buffer" : 0,
            "byteLength" : 352,
            "byteOffset" : 9424
        },
        {
            "buffer" : 0,
            "byteLength" : 528,
            "byteOffset" : 9776
        },
        {
            "buffer" : 0,
            "byteLength" : 528,
            "byteOffset" : 10304
        },
        {
            "buffer" : 0,
            "byteLength" : 352,
            "byteOffset" : 10832
        },
        {
            "buffer" : 0,
            "byteLength" : 528,
            "byteOffset" : 11184
        },
        {
            "buffer" : 0,
            "byteLength" : 528,
            "byteOffset" : 11712
        },
        {
            "buffer" : 0,
            "byteLength" : 352,
            "byteOffset" : 12240
        },
        {
            "buffer" : 0,
            "byteLength" : 43272,
            "byteOffset" : 12592
        },
        {
            "buffer" : 0,
            "byteLength" : 43272,
            "byteOffset" : 55864
        },
        {
            "buffer" : 0,
            "byteLength" : 28848,
            "byteOffset" : 99136
        },
        {
            "buffer" : 0,
            "byteLength" : 19752,
            "byteOffset" : 127984
        }
    ],
    "buffers" : [
        {
            "byteLength" : 147736,
            "uri" : "data:application/octet-stream;base64,"
        }
    ]
}
